<svg width="160" height="32" viewBox="0 0 160 32" fill="none" xmlns="http://www.w3.org/2000/svg">
<path d="M9.2035 24V7.488H14.5075V24H9.2035ZM30.0996 24L23.1636 15.984V24H18.2916V7.488H22.9236L29.8596 15.624V7.488H34.7316V24H30.0996ZM38.2838 7.488H51.6278V11.448H43.5878V14.28H50.4998V18.072H43.5878V24H38.2838V7.488ZM62.4996 7.2C65.3476 7.2 67.5476 7.928 69.0996 9.384C70.6516 10.84 71.4276 12.96 71.4276 15.744C71.4276 18.528 70.6516 20.648 69.0996 22.104C67.5476 23.56 65.3476 24.288 62.4996 24.288C59.6516 24.288 57.4516 23.568 55.8996 22.128C54.3636 20.672 53.5956 18.544 53.5956 15.744C53.5956 12.944 54.3636 10.824 55.8996 9.384C57.4516 7.928 59.6516 7.2 62.4996 7.2ZM62.4996 11.16C61.3636 11.16 60.4996 11.504 59.9076 12.192C59.3156 12.88 59.0196 13.808 59.0196 14.976V16.512C59.0196 17.68 59.3156 18.608 59.9076 19.296C60.4996 19.984 61.3636 20.328 62.4996 20.328C63.6356 20.328 64.4996 19.984 65.0916 19.296C65.6996 18.608 66.0036 17.68 66.0036 16.512V14.976C66.0036 13.808 65.6996 12.88 65.0916 12.192C64.4996 11.504 63.6356 11.16 62.4996 11.16ZM91.78 11.712V24H86.476V11.712H81.052V7.488H97.18V11.712H91.78ZM99.5963 7.488H113.876V11.448H104.9V13.728H112.58V17.52H104.9V20.04H114.044V24H99.5963V7.488ZM124.789 7.2C127.237 7.2 129.173 7.816 130.597 9.048C132.021 10.264 132.733 12.008 132.733 14.28H127.669C127.669 13.32 127.413 12.56 126.901 12C126.405 11.44 125.693 11.16 124.765 11.16C123.693 11.16 122.901 11.496 122.389 12.168C121.893 12.84 121.645 13.776 121.645 14.976V16.512C121.645 17.696 121.893 18.632 122.389 19.32C122.901 19.992 123.677 20.328 124.717 20.328C125.741 20.328 126.517 20.064 127.045 19.536C127.573 19.008 127.837 18.264 127.837 17.304H132.733C132.733 19.56 132.037 21.288 130.645 22.488C129.269 23.688 127.317 24.288 124.789 24.288C121.973 24.288 119.837 23.568 118.381 22.128C116.941 20.688 116.221 18.56 116.221 15.744C116.221 12.928 116.941 10.8 118.381 9.36C119.837 7.92 121.973 7.2 124.789 7.2ZM146.732 24V17.736H140.9V24H135.596V7.488H140.9V13.512H146.732V7.488H152.036V24H146.732Z" fill="#60A5FA"/>
</svg>
